<svg width="94" height="55" viewBox="0 0 94 55" fill="none" xmlns="http://www.w3.org/2000/svg">
<mask id="path-1-outside-1_2156_49" maskUnits="userSpaceOnUse" x="-0.47998" y="-0.279785" width="94" height="55" fill="black">
<rect fill="white" x="-0.47998" y="-0.279785" width="94" height="55"/>
<path d="M12.448 4.00021H21.6C24.288 4.00021 26.6134 4.23488 28.576 4.70421C30.5814 5.13088 32.2454 5.85621 33.568 6.88021C34.8907 7.90421 35.9574 9.03488 36.768 10.2722C37.5787 11.4669 38.1974 13.0242 38.624 14.9442C39.0507 16.8215 39.328 18.6989 39.456 20.5762C39.6267 22.4109 39.712 24.6722 39.712 27.3602C39.712 30.6029 39.6054 33.3122 39.392 35.4882C39.1787 37.6215 38.7094 39.7335 37.984 41.8242C37.3014 43.9149 36.2987 45.5575 34.976 46.7522C33.696 47.9469 31.9467 48.9069 29.728 49.6322C27.5094 50.3575 24.8 50.7202 21.6 50.7202H4.00002V47.5202H7.84002V7.20021H4.00002V4.00021H12.448ZM21.6 7.77621H12.448V46.9442H21.6C24.544 46.9442 26.9334 46.5175 28.768 45.6642C30.6454 44.8109 32.032 43.4455 32.928 41.5682C33.824 39.6909 34.4 37.7069 34.656 35.6162C34.9547 33.5255 35.104 30.7735 35.104 27.3602C35.104 23.9469 34.9547 21.1949 34.656 19.1042C34.4 17.0135 33.824 15.0295 32.928 13.1522C32.032 11.2749 30.6454 9.90955 28.768 9.05621C26.9334 8.20288 24.544 7.77621 21.6 7.77621ZM76.7345 7.20021V4.00021H89.0225V7.20021H85.1825V50.7202H80.0625L56.5105 11.6802V47.5202H60.3505V50.7202H48.0625V47.5202H51.9025V7.20021H48.0625V4.00021H57.0225L80.5745 43.1042V7.20021H76.7345Z"/>
</mask>
<path d="M12.448 4.00021H21.6C24.288 4.00021 26.6134 4.23488 28.576 4.70421C30.5814 5.13088 32.2454 5.85621 33.568 6.88021C34.8907 7.90421 35.9574 9.03488 36.768 10.2722C37.5787 11.4669 38.1974 13.0242 38.624 14.9442C39.0507 16.8215 39.328 18.6989 39.456 20.5762C39.6267 22.4109 39.712 24.6722 39.712 27.3602C39.712 30.6029 39.6054 33.3122 39.392 35.4882C39.1787 37.6215 38.7094 39.7335 37.984 41.8242C37.3014 43.9149 36.2987 45.5575 34.976 46.7522C33.696 47.9469 31.9467 48.9069 29.728 49.6322C27.5094 50.3575 24.8 50.7202 21.6 50.7202H4.00002V47.5202H7.84002V7.20021H4.00002V4.00021H12.448ZM21.6 7.77621H12.448V46.9442H21.6C24.544 46.9442 26.9334 46.5175 28.768 45.6642C30.6454 44.8109 32.032 43.4455 32.928 41.5682C33.824 39.6909 34.4 37.7069 34.656 35.6162C34.9547 33.5255 35.104 30.7735 35.104 27.3602C35.104 23.9469 34.9547 21.1949 34.656 19.1042C34.4 17.0135 33.824 15.0295 32.928 13.1522C32.032 11.2749 30.6454 9.90955 28.768 9.05621C26.9334 8.20288 24.544 7.77621 21.6 7.77621ZM76.7345 7.20021V4.00021H89.0225V7.20021H85.1825V50.7202H80.0625L56.5105 11.6802V47.5202H60.3505V50.7202H48.0625V47.5202H51.9025V7.20021H48.0625V4.00021H57.0225L80.5745 43.1042V7.20021H76.7345Z" fill="black"/>
<path d="M28.576 4.70421L27.6457 8.59453L27.7436 8.61663L28.576 4.70421ZM33.568 6.88021L36.0167 3.71732L36.0167 3.71732L33.568 6.88021ZM36.768 10.2722L33.4222 12.4643L33.4581 12.5182L36.768 10.2722ZM38.624 14.9442L34.7193 15.8119L34.7235 15.8307L38.624 14.9442ZM39.456 20.5762L35.4653 20.8483L35.4732 20.9467L39.456 20.5762ZM39.392 35.4882L43.3722 35.8862L43.3729 35.8785L39.392 35.4882ZM37.984 41.8242L34.205 40.5131L34.1816 40.5826L37.984 41.8242ZM34.976 46.7522L32.2949 43.7838L32.2467 43.828L34.976 46.7522ZM29.728 49.6322L28.4851 45.8302L29.728 49.6322ZM4.00002 50.7202H1.95503e-05L4.00002 54.7202V50.7202ZM4.00002 47.5202V43.5202L1.95503e-05 47.5202H4.00002ZM7.84002 47.5202V51.5202L11.84 47.5202H7.84002ZM7.84002 7.20021H11.84L7.84002 3.20021V7.20021ZM4.00002 7.20021H1.95503e-05L4.00002 11.2002V7.20021ZM4.00002 4.00021V0.000213623L1.95503e-05 4.00021H4.00002ZM12.448 7.77621V3.77621L8.44802 7.77621H12.448ZM12.448 46.9442H8.44802L12.448 50.9442V46.9442ZM28.768 45.6642L27.1128 42.0228L27.0811 42.0373L28.768 45.6642ZM32.928 41.5682L29.3181 39.8453L29.3181 39.8453L32.928 41.5682ZM34.656 35.6162L30.6962 35.0505L30.6857 35.1301L34.656 35.6162ZM34.656 19.1042L30.6857 19.5904L30.6962 19.6699L34.656 19.1042ZM32.928 13.1522L29.3181 14.8751L29.3181 14.8751L32.928 13.1522ZM28.768 9.05621L27.0811 12.6831L27.1128 12.6977L28.768 9.05621ZM12.448 4.00021V8.00021H21.6V4.00021V0.000213623H12.448V4.00021ZM21.6 4.00021V8.00021C24.0712 8.00021 26.0692 8.21754 27.6457 8.59453L28.576 4.70421L29.5063 0.813896C27.1575 0.252224 24.5048 0.000213623 21.6 0.000213623V4.00021ZM28.576 4.70421L27.7436 8.61663C29.2909 8.94584 30.3673 9.4609 31.1193 10.0431L33.568 6.88021L36.0167 3.71732C34.1234 2.25153 31.8718 1.31591 29.4085 0.79179L28.576 4.70421ZM33.568 6.88021L31.1193 10.0431C32.1365 10.8306 32.8842 11.6432 33.4222 12.4643L36.768 10.2722L40.1139 8.08011C39.0305 6.42657 37.6449 4.97783 36.0167 3.71732L33.568 6.88021ZM36.768 10.2722L33.4581 12.5182C33.9029 13.1736 34.365 14.2176 34.7193 15.8119L38.624 14.9442L42.5288 14.0765C42.0297 11.8308 41.2545 9.76015 40.0779 8.02621L36.768 10.2722ZM38.624 14.9442L34.7235 15.8307C35.1053 17.5106 35.3517 19.1825 35.4653 20.8483L39.456 20.5762L43.4468 20.3041C43.3043 18.2152 42.9961 16.1325 42.5246 14.0577L38.624 14.9442ZM39.456 20.5762L35.4732 20.9467C35.6285 22.6165 35.712 24.7454 35.712 27.3602H39.712H43.712C43.712 24.5991 43.6248 22.2053 43.4388 20.2057L39.456 20.5762ZM39.712 27.3602H35.712C35.712 30.5283 35.6073 33.0973 35.4111 35.0979L39.392 35.4882L43.3729 35.8785C43.6035 33.5272 43.712 30.6775 43.712 27.3602H39.712ZM39.392 35.4882L35.4119 35.0902C35.2306 36.9025 34.8311 38.7084 34.205 40.5131L37.984 41.8242L41.763 43.1353C42.5876 40.7587 43.1267 38.3406 43.3722 35.8862L39.392 35.4882ZM37.984 41.8242L34.1816 40.5826C33.6653 42.1636 32.9913 43.1548 32.2949 43.7838L34.976 46.7522L37.6572 49.7206C39.6061 47.9603 40.9374 45.6661 41.7864 43.0658L37.984 41.8242ZM34.976 46.7522L32.2467 43.828C31.5093 44.5162 30.3257 45.2285 28.4851 45.8302L29.728 49.6322L30.971 53.4342C33.5676 52.5853 35.8827 51.3775 37.7053 49.6764L34.976 46.7522ZM29.728 49.6322L28.4851 45.8302C26.7856 46.3858 24.5229 46.7202 21.6 46.7202V50.7202V54.7202C25.0771 54.7202 28.2331 54.3293 30.971 53.4342L29.728 49.6322ZM21.6 50.7202V46.7202H4.00002V50.7202V54.7202H21.6V50.7202ZM4.00002 50.7202H8.00002V47.5202H4.00002H1.95503e-05V50.7202H4.00002ZM4.00002 47.5202V51.5202H7.84002V47.5202V43.5202H4.00002V47.5202ZM7.84002 47.5202H11.84V7.20021H7.84002H3.84002V47.5202H7.84002ZM7.84002 7.20021V3.20021H4.00002V7.20021V11.2002H7.84002V7.20021ZM4.00002 7.20021H8.00002V4.00021H4.00002H1.95503e-05V7.20021H4.00002ZM4.00002 4.00021V8.00021H12.448V4.00021V0.000213623H4.00002V4.00021ZM21.6 7.77621V3.77621H12.448V7.77621V11.7762H21.6V7.77621ZM12.448 7.77621H8.44802V46.9442H12.448H16.448V7.77621H12.448ZM12.448 46.9442V50.9442H21.6V46.9442V42.9442H12.448V46.9442ZM21.6 46.9442V50.9442C24.8824 50.9442 27.9078 50.4758 30.4549 49.2911L28.768 45.6642L27.0811 42.0373C25.9589 42.5593 24.2057 42.9442 21.6 42.9442V46.9442ZM28.768 45.6642L30.4232 49.3057C33.1658 48.0591 35.2403 46.0099 36.5379 43.2911L32.928 41.5682L29.3181 39.8453C28.8237 40.8811 28.1249 41.5627 27.1128 42.0228L28.768 45.6642ZM32.928 41.5682L36.5379 43.2911C37.6225 41.0188 38.3185 38.6166 38.6264 36.1024L34.656 35.6162L30.6857 35.1301C30.4815 36.7972 30.0256 38.363 29.3181 39.8453L32.928 41.5682ZM34.656 35.6162L38.6158 36.1819C38.9524 33.8257 39.104 30.8628 39.104 27.3602H35.104H31.104C31.104 30.6843 30.957 33.2254 30.6962 35.0505L34.656 35.6162ZM35.104 27.3602H39.104C39.104 23.8576 38.9524 20.8947 38.6158 18.5385L34.656 19.1042L30.6962 19.6699C30.957 21.495 31.104 24.0361 31.104 27.3602H35.104ZM34.656 19.1042L38.6264 18.618C38.3185 16.1038 37.6225 13.7016 36.5379 11.4293L32.928 13.1522L29.3181 14.8751C30.0256 16.3575 30.4815 17.9233 30.6857 19.5904L34.656 19.1042ZM32.928 13.1522L36.5379 11.4293C35.2403 8.71048 33.1658 6.66136 30.4232 5.41475L28.768 9.05621L27.1128 12.6977C28.1249 13.1577 28.8237 13.8393 29.3181 14.8751L32.928 13.1522ZM28.768 9.05621L30.4549 5.42933C27.9078 4.24461 24.8824 3.77621 21.6 3.77621V7.77621V11.7762C24.2057 11.7762 25.9589 12.1611 27.0811 12.6831L28.768 9.05621ZM76.7345 7.20021H72.7345L76.7345 11.2002V7.20021ZM76.7345 4.00021V0.000213623L72.7345 4.00021H76.7345ZM89.0225 4.00021H93.0225L89.0225 0.000213623V4.00021ZM89.0225 7.20021V11.2002L93.0225 7.20021H89.0225ZM85.1825 7.20021V3.20021L81.1825 7.20021H85.1825ZM85.1825 50.7202V54.7202L89.1825 50.7202H85.1825ZM80.0625 50.7202L76.6375 52.7864L80.0625 54.7202V50.7202ZM56.5105 11.6802L59.9355 9.61398L52.5105 11.6802H56.5105ZM56.5105 47.5202H52.5105L56.5105 51.5202V47.5202ZM60.3505 47.5202H64.3505L60.3505 43.5202V47.5202ZM60.3505 50.7202V54.7202L64.3505 50.7202H60.3505ZM48.0625 50.7202H44.0625L48.0625 54.7202V50.7202ZM48.0625 47.5202V43.5202L44.0625 47.5202H48.0625ZM51.9025 47.5202V51.5202L55.9025 47.5202H51.9025ZM51.9025 7.20021H55.9025L51.9025 3.20021V7.20021ZM48.0625 7.20021H44.0625L48.0625 11.2002V7.20021ZM48.0625 4.00021V0.000213623L44.0625 4.00021H48.0625ZM57.0225 4.00021L60.449 1.93646L57.0225 0.000213623V4.00021ZM80.5745 43.1042L77.148 45.168L84.5745 43.1042H80.5745ZM80.5745 7.20021H84.5745L80.5745 3.20021V7.20021ZM76.7345 7.20021H80.7345V4.00021H76.7345H72.7345V7.20021H76.7345ZM76.7345 4.00021V8.00021H89.0225V4.00021V0.000213623H76.7345V4.00021ZM89.0225 4.00021H85.0225V7.20021H89.0225H93.0225V4.00021H89.0225ZM89.0225 7.20021V3.20021H85.1825V7.20021V11.2002H89.0225V7.20021ZM85.1825 7.20021H81.1825V50.7202H85.1825H89.1825V7.20021H85.1825ZM85.1825 50.7202V46.7202H80.0625V50.7202V54.7202H85.1825V50.7202ZM80.0625 50.7202L83.4875 48.654L59.9355 9.61398L56.5105 11.6802L53.0855 13.7464L76.6375 52.7864L80.0625 50.7202ZM56.5105 11.6802H52.5105V47.5202H56.5105H60.5105V11.6802H56.5105ZM56.5105 47.5202V51.5202H60.3505V47.5202V43.5202H56.5105V47.5202ZM60.3505 47.5202H56.3505V50.7202H60.3505H64.3505V47.5202H60.3505ZM60.3505 50.7202V46.7202H48.0625V50.7202V54.7202H60.3505V50.7202ZM48.0625 50.7202H52.0625V47.5202H48.0625H44.0625V50.7202H48.0625ZM48.0625 47.5202V51.5202H51.9025V47.5202V43.5202H48.0625V47.5202ZM51.9025 47.5202H55.9025V7.20021H51.9025H47.9025V47.5202H51.9025ZM51.9025 7.20021V3.20021H48.0625V7.20021V11.2002H51.9025V7.20021ZM48.0625 7.20021H52.0625V4.00021H48.0625H44.0625V7.20021H48.0625ZM48.0625 4.00021V8.00021H57.0225V4.00021V0.000213623H48.0625V4.00021ZM57.0225 4.00021L53.596 6.06396L77.148 45.168L80.5745 43.1042L84.001 41.0405L60.449 1.93646L57.0225 4.00021ZM80.5745 43.1042H84.5745V7.20021H80.5745H76.5745V43.1042H80.5745ZM80.5745 7.20021V3.20021H76.7345V7.20021V11.2002H80.5745V7.20021Z" fill="#DF171A" fill-opacity="0.45" mask="url(#path-1-outside-1_2156_49)"/>
</svg>
